<?xml version="1.0" standalone="no"?>
<!DOCTYPE svg PUBLIC "-//W3C//DTD SVG 20010904//EN"
 "http://www.w3.org/TR/2001/REC-SVG-20010904/DTD/svg10.dtd">
<svg version="1.0" xmlns="http://www.w3.org/2000/svg"
 width="1024.000000pt" height="1016.000000pt" viewBox="0 0 1024.000000 1016.000000"
 preserveAspectRatio="xMidYMid meet">

<g transform="translate(0.000000,1016.000000) scale(0.100000,-0.100000)"
fill="#000000" stroke="none">
<path d="M5 5080 c0 -2797 1 -3941 2 -2543 2 1399 2 3687 0 5085 -1 1399 -2
255 -2 -2542z"/>
<path d="M4755 9329 c-251 -30 -398 -53 -520 -79 -75 -16 -220 -52 -245 -60
-14 -4 -59 -18 -100 -30 -244 -74 -421 -144 -665 -262 -111 -54 -266 -138
-312 -169 -23 -16 -44 -29 -48 -29 -9 0 -182 -117 -270 -184 -316 -238 -517
-428 -779 -736 -12 -14 -50 -63 -86 -110 -36 -47 -68 -87 -71 -90 -10 -8 -189
-279 -189 -286 0 -3 -8 -18 -19 -32 -44 -63 -212 -387 -270 -522 -62 -145
-144 -376 -181 -510 -7 -25 -16 -56 -20 -70 -16 -49 -63 -260 -79 -355 -41
-239 -71 -567 -71 -788 0 -212 35 -556 77 -767 30 -144 32 -155 42 -197 6 -24
15 -60 20 -80 5 -21 15 -56 21 -78 6 -22 15 -53 19 -70 68 -244 252 -680 378
-895 14 -25 34 -58 43 -75 45 -78 127 -207 173 -270 65 -90 131 -179 137 -185
3 -3 21 -25 39 -50 103 -134 352 -392 511 -530 41 -36 77 -67 80 -70 3 -3 37
-30 75 -61 65 -51 95 -74 245 -187 151 -113 622 -369 795 -432 11 -4 32 -12
48 -19 118 -49 205 -79 372 -129 93 -29 258 -72 320 -84 28 -5 70 -14 95 -19
153 -31 344 -55 559 -70 176 -12 547 -2 731 21 41 5 100 12 130 15 196 21 699
149 885 224 11 5 31 13 45 19 14 5 41 16 60 23 54 19 204 87 322 144 85 41
178 92 318 175 124 73 392 261 480 336 14 12 48 41 75 64 107 91 377 363 475
480 30 35 63 73 73 85 62 68 317 423 317 441 0 3 8 18 19 32 18 27 33 51 98
167 51 92 159 317 193 405 12 30 27 69 35 85 7 17 18 46 25 65 7 19 16 44 21
55 11 26 59 171 70 213 5 17 13 47 18 65 25 84 54 196 61 232 4 22 14 74 22
115 29 142 49 280 68 462 13 127 13 597 0 723 -23 217 -48 380 -80 530 -17 76
-52 220 -60 245 -4 14 -13 45 -20 70 -38 132 -115 348 -169 475 -87 199 -209
438 -273 532 -15 23 -28 44 -28 48 0 9 -158 243 -223 330 -214 284 -516 592
-802 814 -82 63 -347 246 -410 281 -19 11 -52 30 -72 42 -150 86 -383 202
-500 249 -32 13 -69 28 -95 38 -53 21 -119 45 -203 73 -94 31 -100 33 -230 68
-44 12 -96 26 -115 31 -19 5 -57 14 -85 19 -27 6 -70 15 -95 20 -48 11 -99 19
-280 44 -63 9 -143 21 -176 26 -73 12 -649 11 -749 -1z m482 -2810 c18 -12 47
-40 63 -64 l30 -44 0 -1361 0 -1361 -25 -49 c-16 -32 -41 -60 -67 -77 -36 -24
-51 -28 -114 -28 -66 1 -77 4 -111 31 -20 17 -47 50 -60 75 l-22 44 -1 1363 0
1363 29 43 c36 52 51 65 98 82 49 18 136 10 180 -17z m-1195 -315 c25 -17 53
-49 64 -70 18 -38 19 -74 22 -1069 2 -786 0 -1041 -9 -1075 -16 -57 -42 -93
-92 -126 -33 -22 -52 -27 -104 -27 -75 0 -123 28 -170 96 l-28 42 0 1066 0
1066 28 41 c71 102 191 126 289 56z m2399 9 c21 -14 50 -43 66 -66 l28 -42 0
-1065 0 -1065 -28 -42 c-46 -67 -98 -95 -173 -95 -54 0 -70 5 -109 32 -25 17
-55 50 -68 73 l-22 42 0 1055 c0 1023 1 1056 19 1094 51 101 194 141 287 79z
m-1797 -267 c20 -15 47 -46 61 -70 l25 -43 -2 -800 -3 -799 -27 -41 c-15 -23
-43 -53 -62 -68 -30 -23 -45 -27 -104 -27 -58 -1 -74 3 -111 27 -23 16 -53 47
-67 70 l-24 42 0 803 0 803 24 42 c60 101 200 130 290 61z m1199 6 c21 -14 49
-44 63 -67 l24 -42 0 -803 0 -803 -24 -42 c-14 -23 -44 -54 -67 -69 -35 -24
-52 -28 -111 -28 -59 0 -74 4 -104 27 -19 15 -47 45 -62 68 l-27 41 -3 799 -2
800 25 43 c62 106 191 140 288 76z m-2421 -301 c55 -35 81 -71 96 -133 16 -65
16 -891 0 -956 -14 -60 -39 -95 -93 -132 -37 -25 -53 -30 -105 -30 -72 0 -122
28 -167 93 l-28 42 0 505 0 505 32 46 c63 90 176 116 265 60z m3605 8 c27 -13
56 -39 76 -67 l32 -47 0 -505 0 -505 -28 -42 c-45 -65 -95 -93 -167 -93 -52 0
-68 5 -105 30 -103 71 -105 83 -105 610 0 449 4 497 43 554 11 15 40 41 65 57
57 36 125 39 189 8z m-4240 -440 c84 -41 132 -136 110 -221 -13 -56 -39 -91
-92 -128 l-44 -30 -268 0 -268 0 -46 34 c-125 92 -112 278 23 345 40 20 58 21
292 21 234 0 252 -1 293 -21z m5260 0 c84 -41 128 -130 108 -220 -13 -60 -35
-91 -89 -128 l-45 -31 -266 0 -266 0 -44 30 c-53 37 -83 83 -91 142 -12 85 33
169 108 207 40 20 58 21 292 21 234 0 252 -1 293 -21z"/>
</g>
</svg>
